#!OML:ASF F:\VICON\USERDATA\INSTALL\rory3\rory3.ASF
:FULLY-SPECIFIED
:DEGREES
117
root 1.4152537677648336 17.908696076223404 50.32692384490507 -3.88586955729732 0.1975262009504959 -6.844348233355399
lfemur -13.226105109443678 -0.49077457494984844 -11.690507969567948
ltibia 59.47883274036883
lfoot -7.3283656459833635 -0.2402058476429283
ltoes -13.695128039039568
rfemur -4.613373293717773 2.6760995230184133 31.5092633282835
rtibia 31.233180328004032
rfoot -9.53416219204334 -10.492052545942368
rtoes -1.1533286379413923
lowerback 10.506846382778704 -0.17568091190679694 3.570666452632591
upperback -0.2228915089194199 0.656788356586496 2.4339196723094094
thorax -6.249266152702151 0.3224277005054463 1.0315576556523889
lowerneck -16.890534627008414 -3.6533800941391545 -1.2796747558212735
upperneck 21.258833532810048 -5.029611720576591 0.9307147048470398
head 9.584559470296256 -2.3165610549001805 -0.10876127526493026
lclavicle -2.51254662407672e-15 -2.7416697687045293e-15
lhumerus -31.7987770490079 4.027627556529593 82.52684183996723
lradius 24.863887999280376
lwrist 11.704488625512438
lhand -29.722044999265364 18.07851308610094
lfingers nan
lthumb -3.03208059364203 48.1325476226973
rclavicle -2.4942077030516993e-15 -2.730797137166197e-15
rhumerus -29.6730917479397 -19.978256193877204 -75.68786027446441
rradius 32.938541739906604
rwrist 2.1747393474459695
rhand -17.815243770246706 21.713930837876628
rfingers nan
rthumb 8.26982035105759 -7.915246756366161
118
root 1.364691802524415 17.8636747157178 49.33097748206324 -4.490761377761569 0.4845656322152705 -7.025363243441973
lfemur -15.882866766855557 -0.6337570142788123 -11.95436261573729
ltibia 57.36726516309179
lfoot -7.346827978639756 0.9671288748448599
ltoes -15.290366122982064
rfemur -4.414602280551012 2.6476859137070514 31.53802688369244
rtibia 32.802110129756635
rfoot -7.108130275445093 -10.070157301243878
rtoes -0.5579937412714719
lowerback 10.623124426321722 0.06727818029898161 3.7042372580497682
upperback -0.21226280847135554 1.0599218310727618 2.349607004115664
thorax -6.204076452427929 0.508448173996618 0.4414947149888032
lowerneck -16.69818974738501 -3.756795353556426 -1.3248241447454197
upperneck 21.31451157096456 -5.227513849850926 0.9850560310537948
head 9.59558756668042 -2.3870935535234956 -0.12190644405969644
lclavicle -2.512451002681885e-15 -2.743891716161075e-15
lhumerus -31.435510118712358 3.6571714839792215 82.46468112654642
lradius 25.281133254838725
lwrist 11.57471910452313
lhand -29.687185676102697 18.051449387549653
lfingers nan
lthumb -2.9861350557908044 48.147886248395395
rclavicle -2.4972407076242706e-15 -2.7342651486232246e-15
rhumerus -29.725783930628147 -19.824043548810522 -75.81489774947012
rradius 32.982636708410375
rwrist 2.1674932048785855
rhand -17.787251425984017 21.758632005155352
rfingers nan
rthumb 8.308181277484664 -7.854448841342087
119
root 1.3161319144881611 17.83689797396336 49.422232423197315 -4.258291072045289 0.989251812652699 -8.099773147287415
lfemur -18.126145378227427 -0.8508625276480424 -11.510865357677911
ltibia 54.184794974392865
lfoot -8.508112780182815 0.7930905719530474
ltoes -15.357065565058473
rfemur -4.748199192587185 2.5903077888324733 32.14273663109006
rtibia 34.83176620718697
rfoot -4.872471534462258 -10.116940907529521
rtoes 0.7914492682769874
lowerback 10.689611732154242 0.24463726597548088 4.6447092620361055
upperback -0.2613621896899911 1.5386654693206765 2.321419450508452
thorax -6.189735533880769 0.6941395168196405 -0.315787345997969
lowerneck -16.498454626191215 -3.837728812195398 -1.387933215436218
upperneck 21.432289706648834 -5.388014141158203 1.0508364852882928
head 9.627068327178666 -2.4437841309792097 -0.12231125959656566
lclavicle -2.510633917414696e-15 -2.745020671881142e-15
lhumerus -30.97837678869123 3.2102964924101567 82.37556540557793
lradius 25.707996566677565
lwrist 11.342470419222826
lhand -29.65470997091112 18.014724464026546
lfingers nan
lthumb -2.945228944763031 48.15121516263109
rclavicle -2.499884003092852e-15 -2.7374335107829343e-15
rhumerus -29.887372534329955 -19.747386412923603 -76.00675646035252
rradius 32.99717145368251
rwrist 2.1700273296938564
rhand -17.798812537280195 21.72852761743667
rfingers nan
rthumb 8.282200402698184 -7.932648375599326
120
root 1.2702934452198629 17.81768508471702 48.59634556355382 -4.377598251731467 1.0298917222808437 -7.912824076647498
lfemur -19.40818286068924 -1.0330830802507742 -12.139400094870911
ltibia 49.968811599347475
lfoot -8.822170539280478 1.7572351886544504
ltoes -16.25914694531777
rfemur -4.8517968674772085 2.435231652988143 31.797210746352228
rtibia 36.7364555074568
rfoot -3.322426362743669 -10.590871452448452
rtoes 2.685143593609069
lowerback 10.753515127499831 0.42312165863242446 4.5889267499566335
upperback -0.27290929387752744 1.7288101477356335 2.1721263674579685
thorax -6.0985650632191915 0.8149576174235037 -0.5652431217667924
lowerneck -16.334582046620007 -3.8924742184220333 -1.4568267197237108
upperneck 21.56799066528858 -5.50077635688739 1.1397739951351589
head 9.668949356152709 -2.481799222548457 -0.10501823080874859
lclavicle -2.5104684476913463e-15 -2.7475151837621855e-15
lhumerus -30.410101354882947 2.742738289402202 82.27905014753341
lradius 26.116039313582807
lwrist 10.963908623505537
lhand -29.614464146494868 18.00064358494658
lfingers nan
lthumb -2.902263252405786 48.1726323875694
rclavicle -2.503109935370116e-15 -2.7412046729383523e-15
rhumerus -30.05725924538355 -19.710032794554955 -76.2157556309901
rradius 32.975335621387885
rwrist 2.1750619494150643
rhand -17.778764275043436 21.75271044143141
rfingers nan
rthumb 8.316883511358842 -7.887501470811722
121
root 1.2515856192764074 17.806751236030564 49.34633455189102 -4.4168252949104865 1.2254400543516808 -6.8476190022646914
lfemur -19.83048125633706 -1.2911849850303552 -13.577719903631442
ltibia 45.038040230876746
lfoot -9.98698827628447 1.880554236367471
ltoes -16.237795386752417
rfemur -4.970887593809477 1.9463475109295394 30.63591584239242
rtibia 38.75673045222432
rfoot -2.625989426226191 -11.177435648172484
rtoes 4.57503740422276
lowerback 10.716335278622152 0.5534022347280113 4.087342169702678
upperback -0.2728420464215713 1.7727461156298006 1.9472226031448785
thorax -6.014839362745271 0.8251325086206629 -0.7518927682778467
lowerneck -16.20391487683265 -3.9297341084306048 -1.528316834426624
upperneck 21.667967289883265 -5.579659812766242 1.2615085449873897
head 9.702245434590983 -2.504995999759865 -0.06864195403549253
lclavicle -2.511180890679152e-15 -2.7487619290513606e-15
lhumerus -29.812441013064756 2.228341648343068 82.1623500900902
lradius 26.48836601617821
lwrist 10.490346420037925
lhand -29.572458682363063 18.012253265448983
lfingers nan
lthumb -2.862434274665778 48.22628260389341
rclavicle -2.504135294146178e-15 -2.7424259192964743e-15
rhumerus -30.236906260199802 -19.689240662523854 -76.434354323712
rradius 32.920513902764704
rwrist 2.1746446024440003
rhand -17.801793073041857 21.701681364396137
rfingers nan
rthumb 8.296661200597034 -7.95254746517877
122
root 1.2701454018425895 17.815801549476742 50.57222673384169 -4.516059328139037 1.718651451586303 -5.517307379098295
lfemur -19.76626680132639 -1.764382935673299 -15.609832583194109
ltibia 40.14089002799177
lfoot -10.024331632337558 2.068627788704448
ltoes -16.423086209168062
rfemur -6.150915441711676 1.0188347423391275 28.816306017414163
rtibia 41.61348973700968
rfoot -2.511329459555733 -11.460209520189286
rtoes 5.852075996071938
lowerback 10.626100037341079 0.5792230469235705 3.2959935809181573
upperback -0.2648371645195189 1.6771490039850236 1.7700545486366186
thorax -5.916169389158453 0.8091608717053826 -0.7431646523665647
lowerneck -16.120469664119195 -3.95289795666798 -1.6025917904464766
upperneck 21.71057752902765 -5.631640343706284 1.414392143741162
head 9.717858771160369 -2.516273860967295 -0.01552342113583352
lclavicle -2.5106869187463962e-15 -2.7490207496556174e-15
lhumerus -29.259488334140215 1.6783232099774854 82.01000766235816
lradius 26.819519285426832
lwrist 10.007213753043578
lhand -29.515507096669058 18.10121542557153
lfingers nan
lthumb -2.818899907922167 48.33971028596292
rclavicle -2.504176364440634e-15 -2.7428607496445255e-15
rhumerus -30.49729571042913 -19.7553714722682 -76.691818128385
rradius 32.85728441132273
rwrist 2.16753150503465
rhand -17.787734972406792 21.718698641074145
rfingers nan
rthumb 8.339109767860634 -7.892055565309167
123
root 1.2733852271687276 17.816747024834523 51.03464436171109 -4.701148603423512 2.1186985077770135 -4.986170582436282
lfemur -19.148070466169784 -2.2703556564721996 -16.977055637241506
ltibia 35.72820909914368
lfoot -10.35622893523359 1.194521417922744
ltoes -17.244589827759317
rfemur -7.669778015291229 0.15593282719504464 27.6824895730724
rtibia 44.90982291063582
rfoot -2.7156791801929794 -11.474523429949196
rtoes 6.697005610803268
lowerback 10.597852538861318 0.5881243167566551 2.9585360629601105
upperback -0.26717162917118403 1.6489521262049032 1.68300040613715
thorax -5.888787149541195 0.8040068506535551 -0.7659126146253976
lowerneck -16.088029058869385 -3.961515418970525 -1.657423341353832
upperneck 21.702752028582957 -5.654926270333022 1.5851285396083388
head 9.719208536472243 -2.515854917837927 0.04841157099710666
lclavicle -2.509550561476534e-15 -2.748277768480456e-15
lhumerus -28.754433518307557 1.1700164638794042 81.84264219281276
lradius 27.11251683764165
lwrist 9.535396630312054
lhand -29.45481934594572 18.22827344752405
lfingers nan
lthumb -2.773251867646975 48.4834986560809
rclavicle -2.5036915793874286e-15 -2.7425308759124295e-15
rhumerus -30.834926045214775 -19.923014374660692 -76.98309244250632
rradius 32.78219402594325
rwrist 2.153582870509875
rhand -17.809959596837555 21.67767623236225
rfingers nan
rthumb 8.31419229838381 -7.9575563458779
124
root 1.2828493485199532 17.81916943030842 51.97554673035861 -4.6673440858074855 2.3850613490303694 -4.068478503122029
lfemur -17.481089502009254 -2.6533988194591527 -18.47645987024743
ltibia 31.630611316902428
lfoot -10.253577602456833 0.5727432282353
ltoes -17.105643946519123
rfemur -9.110329437631695 -0.5350986401550406 26.3254619610472
rtibia 48.231683567126176
rfoot -3.1530764033743397 -11.236761050421343
rtoes 7.417744307811846
lowerback 10.546077303342466 0.5469438849552487 2.3984662516714605
upperback -0.26620732335627295 1.460491684471357 1.5411743536949172
thorax -5.899489444475806 0.7241679243134505 -0.6397722357847682
lowerneck -16.119278700825816 -3.965690522917424 -1.6822240921021654
upperneck 21.654090998825662 -5.669129552427427 1.7626599822220912
head 9.710162629103957 -2.5102512698382236 0.11523218701064357
lclavicle -2.5092167905175144e-15 -2.7480481493219406e-15
lhumerus -28.302802644684384 0.7567571752554629 81.6801323693208
lradius 27.352871593976914
lwrist 9.036690989826875
lhand -29.38733414712094 18.393804636052025
lfingers nan
lthumb -2.7256102243858153 48.633268264685476
rclavicle -2.502888440022155e-15 -2.7419982106709727e-15
rhumerus -31.163361326955208 -20.148304955256098 -77.2547908438961
rradius 32.68999406678795
rwrist 2.1320721979165254
rhand -17.7858829170478 21.72103850845848
rfingers nan
rthumb 8.347628955280582 -7.901777146857058
